# xmcd
#
# Track frame offsets:
#	150
#	900
#	8930
#	21803
#	33744
#	46437
#	59478
#	72798
#	83945
#	88367
#	97160
#	108805
#	120638
#	131154
#	137475
#	149508
#	163537
#	172446
#	180148
#	184774
#	196049
#	207470
#	220158
#	228031
#	243418
#	255223
#	261571
#	276633
#	289377
#	307966
#	319267
#
# Disc length: 4452 seconds
#
# Revision: 0
# Processed by: cddbd v1.4PL0 Copyright (c) Steve Scherf et al.
# Submitted via: audiograbber 1.80
#
DISCID=cc11621f
DTITLE=Mano Negra - Best
DYEAR=1900
DGENRE=
TTITLE0=Data Track
TTITLE1=Mano Negra (Part I)
TTITLE2=Baby You`re Mine
TTITLE3=Indios De Barcelona
TTITLE4=Noche De Accion
TTITLE5=Mala Vida
TTITLE6=La Ventura
TTITLE7=Lonesame Bop
TTITLE8=Mano Negra (Part II)
TTITLE9=King Kong Five
TTITLE10=Soledad
TTITLE11=Sidi H` Bibi
TTITLE12=Pas Assez De Toi
TTITLE13=Magic Dice
TTITLE14=Mad House
TTITLE15=Pachanka
TTITLE16=La Rancon Du Success
TTITLE17=The Devil`s Call
TTITLE18=El Sur
TTITLE19=Pachuko Hop
TTITLE20=Letter To Censors
TTITLE21=El Jako
TTITLE22=It`s My Heart
TTITLE23=Out Of Time Man
TTITLE24=Mme oscar
TTITLE25=Furious Fiesta
TTITLE26=Paris La Nuit
TTITLE27=The Monkey
TTITLE28=Senor Matanza
TTITLE29=Love And Hate
TTITLE30=Hamburger Fields
EXTD=
EXTT0=
EXTT1=
EXTT2=
EXTT3=
EXTT4=
EXTT5=
EXTT6=
EXTT7=
EXTT8=
EXTT9=
EXTT10=
EXTT11=
EXTT12=
EXTT13=
EXTT14=
EXTT15=
EXTT16=
EXTT17=
EXTT18=
EXTT19=
EXTT20=
EXTT21=
EXTT22=
EXTT23=
EXTT24=
EXTT25=
EXTT26=
EXTT27=
EXTT28=
EXTT29=
EXTT30=
PLAYORDER=
